#!OML:ASF I:\salsa\salsa 7_09\Patient 1\Session 1\dancerfemale.ASF
:FULLY-SPECIFIED
:DEGREES
1889
root 13.8724 15.9524 1.98697 410.967 632.502 312.433
lowerback -2.03103 2.84534 0.540399
upperback -7.14468 3.51768 -2.11488
thorax -6.11125 1.56712 -2.60602
lowerneck -1.43638 -3.91789 -9.39671
upperneck 16.1535 -7.22111 13.3315
head 5.86698 -3.46014 5.391
rclavicle -5.76476e-015 1.11319e-014
rhumerus -46.2508 0.967314 -100.539
rradius 91.735
rwrist -0.237015
rhand 0.88965 49.9777
rfingers 7.12502
rthumb 26.4422 21.8021
lclavicle -5.76476e-015 1.11319e-014
lhumerus -50.9402 20.2753 73.2612
lradius 80.1043
lwrist -17.213
lhand -22.6972 24.2825
lfingers 7.12502
lthumb 3.73551 54.2295
rfemur -15.3468 -5.60008 25.0904
rtibia 27.464
rfoot -19.5173 7.57073
rtoes -15.4634
lfemur -8.62398 3.46248 -19.0565
ltibia 36.1632
lfoot -31.9253 14.0966
ltoes 9.97407
1890
root 13.8755 15.9549 1.98714 403.234 632.75 320.103
lowerback -1.91181 3.11449 0.463614
upperback -7.1943 3.86006 -2.40354
thorax -6.20301 1.73018 -2.88282
lowerneck -1.00847 -4.21119 -8.77361
upperneck 15.9484 -7.68556 13.322
head 5.76291 -3.67428 5.25413
rclavicle -1.70955e-014 9.54166e-015
rhumerus -46.2482 -0.204604 -100.262
rradius 91.7511
rwrist -0.0610779
rhand 0.758782 49.9528
rfingers 7.12502
rthumb 26.317 21.7585
lclavicle -1.70955e-014 9.54166e-015
lhumerus -50.8334 20.0322 72.6714
lradius 75.0765
lwrist -18.2902
lhand -22.6548 24.1959
lfingers 7.12502
lthumb 3.77647 54.1422
rfemur -15.2395 -5.33878 24.9999
rtibia 27.4019
rfoot -19.5017 6.87397
rtoes -15.6797
lfemur -8.41808 3.3437 -19.1084
ltibia 35.813
lfoot -31.7681 13.9313
ltoes 9.72349
1891
root 13.8799 15.9608 1.98798 395.528 633.02 327.8
lowerback -1.78147 3.17787 0.308665
upperback -7.24503 3.93065 -2.55925
thorax -6.32867 1.76593 -2.97175
lowerneck -0.910472 -4.36613 -8.45556
upperneck 15.9538 -7.9105 13.1947
head 5.75858 -3.7776 5.14399
rclavicle -1.19271e-014 1.11319e-014
rhumerus -46.2532 -0.728639 -100.089
rradius 91.6943
rwrist -0.030379
rhand 0.632043 49.9409
rfingers 7.12502
rthumb 26.1956 21.7285
lclavicle -1.19271e-014 1.11319e-014
lhumerus -51.0288 20.5548 71.7598
lradius 70.2573
lwrist -19.3723
lhand -23.2181 24.5455
lfingers 7.12502
lthumb 3.23244 54.5007
rfemur -15.1776 -5.08409 24.8351
rtibia 27.3204
rfoot -19.5153 6.16276
rtoes -14.8902
lfemur -8.26255 3.20629 -19.2383
ltibia 35.4332
lfoot -31.69 13.6796
ltoes 9.85044
1892
root 13.8849 15.9696 1.98956 389.24 633.325 334.097
lowerback -1.64551 3.08302 0.105215
upperback -7.27217 3.79899 -2.5332
thorax -6.4575 1.71095 -2.83727
lowerneck -0.965908 -4.39019 -8.53966
upperneck 15.9968 -7.91671 13.0791
head 5.78181 -3.78705 5.11904
rclavicle -5.56597e-015 1.74931e-014
rhumerus -46.2968 -0.720779 -99.9379
rradius 91.6657
rwrist -0.061452
rhand 0.621885 49.942
rfingers 7.12502
rthumb 26.1859 21.7282
lclavicle -5.56597e-015 1.74931e-014
lhumerus -51.5741 21.8066 70.5651
lradius 65.7361
lwrist -20.2032
lhand -23.843 25.0163
lfingers 7.12502
lthumb 2.62894 54.9798
rfemur -15.1002 -4.80281 24.6632
rtibia 27.192
rfoot -19.4993 5.41868
rtoes -14.3143
lfemur -8.14091 3.0489 -19.3677
ltibia 35.0754
lfoot -31.6585 13.4007
ltoes 9.89974
1893
root 13.8909 15.9788 1.99085 386.021 633.685 337.364
lowerback -1.58149 2.99161 0.0201988
upperback -7.28866 3.67691 -2.48315
thorax -6.52623 1.6561 -2.7383
lowerneck -1.08484 -4.40992 -8.66582
upperneck 16.0786 -7.93344 13.067
head 5.83455 -3.79592 5.13334
rclavicle -2.5842e-015 1.98785e-014
rhumerus -46.3079 -0.755894 -99.8307
rradius 91.7033
rwrist -0.0736571
rhand 0.776066 50.1186
rfingers 7.12502
rthumb 26.3335 21.9268
lclavicle -2.5842e-015 1.98785e-014
lhumerus -52.2399 23.2379 69.1288
lradius 61.4529
lwrist -20.6646
lhand -24.1872 25.1282
lfingers 7.12502
lthumb 2.2966 55.0956
rfemur -15.0448 -4.52 24.6228
rtibia 27.0217
rfoot -19.3595 4.80427
rtoes -15.4346
lfemur -8.09667 2.85053 -19.3619
ltibia 34.7566
lfoot -31.5489 13.1768
ltoes 9.65439
1894
root 13.8998 15.9875 1.99343 384.337 634.096 339.199
lowerback -1.6426 2.89356 0.0701104
upperback -7.30043 3.54815 -2.46006
thorax -6.50772 1.59015 -2.73423
lowerneck -1.2185 -4.42667 -8.72295
upperneck 16.1066 -7.94075 13.0508
head 5.86937 -3.79628 5.13429
rclavicle 9.93923e-015 5.56597e-015
rhumerus -46.2265 -0.794501 -99.786
rradius 91.768
rwrist -0.121324
rhand 0.729173 50.3278
rfingers 7.12502
rthumb 26.2886 22.1293
lclavicle 9.93923e-015 5.56597e-015
lhumerus -52.9836 24.7211 67.4878
lradius 57.3897
lwrist -21.0972
lhand -24.5506 25.5033
lfingers 7.12502
lthumb 1.94559 55.4742
rfemur -15.1065 -4.39555 24.6628
rtibia 26.861
rfoot -19.3786 4.26245
rtoes -15.3889
lfemur -8.19375 2.42888 -19.3148
ltibia 34.4647
lfoot -31.3868 13.1047
ltoes 9.64389
1895
root 13.9095 15.9958 1.99729 381.911 634.451 341.777
lowerback -1.79527 2.81409 0.0239286
upperback -7.25165 3.44401 -2.46102
thorax -6.375 1.54366 -2.69509
lowerneck -1.31487 -4.44943 -8.73934
upperneck 16.0063 -7.94226 13.0304
head 5.85555 -3.79375 5.12698
rclavicle 1.64991e-014 2.46493e-014
rhumerus -46.043 -0.911322 -99.7056
rradius 91.8786
rwrist -0.222066
rhand 0.543034 50.463
rfingers 7.12502
rthumb 26.1104 22.238
lclavicle 1.64991e-014 2.46493e-014
lhumerus -53.844 26.3942 65.5968
lradius 53.5613
lwrist -21.8332
lhand -25.129 25.4174
lfingers 7.12502
lthumb 1.38703 55.3926
rfemur -15.1843 -4.46955 24.5914
rtibia 26.7208
rfoot -19.4847 3.88082
rtoes -14.8137
lfemur -8.29794 1.87922 -19.4181
ltibia 34.1844
lfoot -31.2677 13.2088
ltoes 9.78017
1896
root 13.9255 16.0071 1.99935 377.777 634.842 346.168
lowerback -1.89063 2.71657 -0.261282
upperback -7.30078 3.30196 -2.4916
thorax -6.394 1.4864 -2.56037
lowerneck -1.40877 -4.44483 -8.83172
upperneck 15.9984 -7.93045 13.1007
head 5.8742 -3.78419 5.16451
rclavicle 3.57812e-014 -3.18055e-015
rhumerus -45.9647 -1.18895 -99.5791
rradius 92.0313
rwrist -0.378329
rhand 0.501786 50.4008
rfingers 7.12502
rthumb 26.0709 22.17
lclavicle 3.57812e-014 -3.18055e-015
lhumerus -55.0299 28.2558 63.3163
lradius 50.0183
lwrist -22.9455
lhand -25.709 24.3245
lfingers 7.12502
lthumb 0.826785 54.3027
rfemur -15.4025 -4.69841 24.3472
rtibia 26.5878
rfoot -19.4016 3.65231
rtoes -15.4332
lfemur -8.56323 1.25772 -19.707
ltibia 33.9399
lfoot -31.1187 13.3708
ltoes 10.065
1897
root 13.9388 16.0161 2.00546 375.2 635.154 348.87
lowerback -1.79366 2.6844 -0.43616
upperback -7.40134 3.24629 -2.51839
thorax -6.56859 1.46397 -2.4986
lowerneck -1.44002 -4.43576 -8.94523
upperneck 16.0823 -7.93113 13.1767
head 5.91275 -3.78444 5.20918
rclavicle -3.29983e-014 -3.26007e-014
rhumerus -46.044 -1.61661 -99.4112
rradius 92.1718
rwrist -0.551096
rhand 0.310788 50.3694
rfingers 7.12502
rthumb 25.888 22.1117
lclavicle -3.29983e-014 -3.26007e-014
lhumerus -56.4921 29.9811 60.8425
lradius 46.8332
lwrist -24.0769
lhand -25.9302 24.4825
lfingers 7.12502
lthumb 0.613127 54.4613
rfemur -15.5074 -4.92318 24.1427
rtibia 26.4895
rfoot -19.2656 3.62937
rtoes -16.2357
lfemur -8.64967 0.587566 -19.9497
ltibia 33.7096
lfoot -31.1012 13.6127
ltoes 10.7041
1898
root 13.9519 16.0192 2.00856 375.007 635.507 349.094
lowerback -1.65842 2.66663 -0.445012
upperback -7.45184 3.22205 -2.47344
thorax -6.70461 1.45249 -2.45535
lowerneck -1.51706 -4.48211 -9.07837
upperneck 16.161 -7.98103 13.1387
head 5.96087 -3.81308 5.21472
rclavicle 3.598e-014 8.74653e-015
rhumerus -46.1213 -2.06911 -99.1821
rradius 92.3158
rwrist -0.80342
rhand -0.0450044 50.4651
rfingers 7.12502
rthumb 25.5473 22.1581
lclavicle 3.598e-014 8.74653e-015
lhumerus -58.0778 31.5961 58.2437
lradius 44.0613
lwrist -25.1897
lhand -25.8155 25.4731
lfingers 7.12502
lthumb 0.723946 55.4517
rfemur -15.5537 -4.98952 24.1767
rtibia 26.4612
rfoot -19.3346 3.40229
rtoes -15.8744
lfemur -8.66712 0.0732357 -19.9223
ltibia 33.4929
lfoot -31.1327 13.6846
ltoes 11.2887
1899
root 13.9651 16.0195 2.01239 374.362 635.833 349.745
lowerback -1.57618 2.64821 -0.504035
upperback -7.42827 3.20084 -2.42718
thorax -6.73324 1.4482 -2.37697
lowerneck -1.72529 -4.57745 -9.19977
upperneck 16.2001 -8.05558 12.9628
head 6.01797 -3.8538 5.16699
rclavicle -3.97569e-015 1.59028e-014
rhumerus -46.1952 -2.47455 -98.9365
rradius 92.4952
rwrist -1.08489
rhand -0.330751 50.5532
rfingers 7.12502
rthumb 25.2735 22.2073
lclavicle -3.97569e-015 1.59028e-014
lhumerus -59.8018 33.1388 55.5341
lradius 41.7555
lwrist -26.2979
lhand -25.8725 25.7401
lfingers 7.12502
lthumb 0.668842 55.7188
rfemur -15.5809 -4.93883 24.1471
rtibia 26.47
rfoot -19.4653 3.05675
rtoes -15.7099
lfemur -8.66273 -0.238979 -19.933
ltibia 33.2802
lfoot -31.0987 13.6383
ltoes 11.4517
